<svg xmlns="http://www.w3.org/2000/svg" width="113.141" height="25.21" viewBox="0 0 113.141 25.21">
  <g id="logo" transform="translate(-159 -18)">
    <path id="Caminho_1" data-name="Caminho 1" d="M22.2,37.268l1.262-5.348H8.318c-2.773-.02-4.5,1.11-5.047,3.38L0,48.856H13.74c4.206-.008,6.029-.743,7.01-5.442H13.086a4.578,4.578,0,0,1-4.627,2.533l2.009-8.633q.8-2.628,4.58-2.44-.3,1.2-.607,2.392Z" transform="translate(159 -5.648)" fill-rule="evenodd"/>
    <path id="Caminho_2" data-name="Caminho 2" d="M108.36,31.921H93.089c-2.773-.016-4.5,1.111-5.046,3.378L84.77,48.857H98.511c4.206-.008,6.5-.572,7.224-5.442h-.01l2.635-11.494Zm-10.511,11.5a4.576,4.576,0,0,1-4.62,2.522l2.01-8.632q.795-2.627,4.58-2.439l-1.9,8.258h0l-.067.3Z" transform="translate(96.196 -5.649)" fill-rule="evenodd"/>
    <path id="Caminho_3" data-name="Caminho 3" d="M178.3,0l-4.852,20.454c-.77,3.33.241,4.755,2.624,4.756h7.482l.17-1.049h-.611q-2.7.037-1.9-3.431L186.074,0Z" transform="translate(30.684 18)" fill-rule="evenodd"/>
    <path id="Caminho_4" data-name="Caminho 4" d="M239.98,37.268l1.262-5.348H226.1c-2.773-.016-4.5,1.111-5.047,3.378l-3.271,13.559h13.74c4.206-.008,6.029-.743,7.01-5.442h-7.665a4.578,4.578,0,0,1-4.627,2.533l2.01-8.632q.795-2.627,4.58-2.439l-.608,2.392Z" transform="translate(-2.349 -5.648)" fill-rule="evenodd"/>
    <path id="Caminho_5" data-name="Caminho 5" d="M324.576,37.268l1.262-5.348H310.7c-2.773-.016-4.5,1.111-5.047,3.378l-3.271,13.559h13.739c4.206-.008,6.029-.743,7.01-5.442h-7.665a4.578,4.578,0,0,1-4.627,2.533l2.01-8.632q.795-2.627,4.58-2.439l-.608,2.392Z" transform="translate(-65.025 -5.648)" fill-rule="evenodd"/>
    <path id="Caminho_6" data-name="Caminho 6" d="M392.566,5.048,391.4,9.836h4.686a3.263,3.263,0,0,0,3.68-2.4l.574-2.387Zm-1.691,6.937L387.9,24.194c-.77,3.33.241,4.755,2.624,4.756h7.482l.17-1.049h-.611q-2.7.037-1.9-3.43l3-12.485Z" transform="translate(-128.199 14.26)" fill-rule="evenodd"/>
  </g>
</svg>
